# xmcd CD database file
#
# Track frame offsets:
#	150
#	11454
#	23222
#	36474
#	48975
#	58230
#	65570
#	76023
#	87932
#	99977
#	115085
#	127575
#	138122
#	149462
#	160449
#	170334
#	182144
#
# Disc length: 2584 seconds
#
# Revision: 0
# Processed by: cddbd v1.5.2PL0 Copyright (c) Steve Scherf et al.
# Submitted via: CDex 1.70beta2
#
DISCID=db0a1611
DTITLE=Various Artist - COUNTRY  Edition Speciale
DYEAR=2003
DGENRE=Country
TTITLE0=Roger Miller - King of the road
TTITLE1=Patsy Cline - Walking after midnight
TTITLE2=Kenny Rogers - Ruby don't take your love to down
TTITLE3=Lynn Anderson - Stand by your man
TTITLE4=Frankie Laine - Rawhide
TTITLE5=Conway Twitty - Treat me mean treat me cruel
TTITLE6=Dolly Parton - Release me
TTITLE7=Willie Nelson - The last letter
TTITLE8=Waylon Jennings - Sally was a good old girl
TTITLE9=Jeannie C. Riley - Harper valley P.T.A.
TTITLE10=Gram Parsoms and Emmylou Harris - That's all it took
TTITLE11=Faron Young - Hello walls
TTITLE12=Johnny Paycheck - Tender years
TTITLE13=Stonewall Jackson - Let the sun on the people
TTITLE14=Mickey Gilley - fraulein
TTITLE15=Freddy Fender - Before the next teardrop falls
TTITLE16=Roy Drusky - Three hearts in a tangle
EXTD=YEAR: 2003
EXTT0=
EXTT1=
EXTT2=
EXTT3=
EXTT4=
EXTT5=
EXTT6=
EXTT7=
EXTT8=
EXTT9=
EXTT10=
EXTT11=
EXTT12=
EXTT13=
EXTT14=
EXTT15=
EXTT16=
PLAYORDER=
